 <svg  version="1.0" xmlns="http://www.w3.org/2000/svg"  width="300.000000pt" height="300.000000pt" viewBox="0 0 300.000000 300.000000"  preserveAspectRatio="xMidYMid meet">  <g transform="translate(0.000000,300.000000) scale(0.100000,-0.100000)" fill="#ffffff" stroke="none"> <path d="M1327 2400 c-50 -9 -65 -16 -55 -26 3 -3 26 0 49 7 67 20 300 17 379 -5 321 -85 548 -294 651 -601 13 -39 25 -62 27 -52 6 28 -63 195 -110 267 -55 84 -166 201 -245 256 -87 63 -218 122 -320 144 -93 21 -282 25 -376 10z"/> <path d="M1535 2040 c-39 -40 -40 -40 -116 -40 -92 0 -169 -10 -169 -21 0 -5 19 -7 43 -4 23 2 75 7 115 10 l73 5 -112 -127 c-137 -156 -199 -240 -198 -268 0 -18 1 -17 10 5 18 44 83 127 233 293 l89 99 46 -6 c25 -4 66 -7 91 -7 l45 0 -50 -24 c-62 -30 -90 -32 -55 -5 14 11 21 20 16 20 -9 0 -109 -80 -114 -93 -2 -4 -7 -5 -12 -2 -4 3 -19 0 -32 -5 -21 -10 -20 -10 6 -5 26 5 28 4 17 -9 -7 -8 -9 -21 -5 -27 5 -8 3 -9 -5 -5 -7 5 -18 0 -26 -10 -21 -28 -18 -40 5 -19 11 10 30 19 42 20 12 1 24 7 26 14 3 10 -2 11 -19 6 -22 -7 -22 -5 8 26 19 20 59 44 95 58 35 13 78 33 96 44 24 14 43 18 68 14 19 -3 34 -2 34 4 0 5 -10 9 -22 9 -21 0 -20 3 12 33 l35 32 -28 3 c-16 2 -56 -10 -94 -27 -46 -22 -80 -31 -116 -31 l-51 0 34 35 c18 19 31 37 29 40 -3 2 -23 -13 -44 -35z m215 -21 c-19 -16 -40 -27 -47 -24 -7 2 -13 1 -13 -4 0 -4 -12 -6 -27 -3 -26 5 -24 7 32 34 78 36 100 36 55 -3z"/> <path d="M1593 1840 c-17 -10 -33 -16 -36 -14 -3 3 -19 -2 -36 -11 -18 -9 -36 -13 -41 -10 -6 3 -10 1 -10 -4 0 -15 26 -14 60 4 25 13 29 13 24 1 -10 -25 11 -25 62 -1 27 13 43 24 36 24 -7 1 -27 -6 -43 -15 -17 -8 -33 -13 -36 -11 -2 3 5 8 16 12 12 3 18 11 15 17 -4 6 -2 8 4 4 6 -3 14 -1 17 5 12 19 0 19 -32 -1z"/> <path d="M527 1623 c-4 -3 -7 -35 -7 -70 0 -51 3 -63 16 -63 12 0 14 7 9 30 -6 29 -5 30 30 30 36 0 37 -1 33 -30 -3 -20 0 -30 9 -30 9 0 13 19 13 70 0 40 -4 70 -10 70 -5 0 -10 -13 -10 -30 0 -28 -3 -30 -36 -30 -34 0 -35 1 -29 30 6 28 -3 39 -18 23z"/> <path d="M806 1623 c-3 -3 -6 -35 -6 -70 0 -49 3 -63 15 -63 12 0 15 14 15 64 0 60 -8 84 -24 69z"/> <path d="M1323 1623 l-43 -4 0 -65 0 -64 45 0 c33 0 45 4 45 15 0 10 -11 15 -35 15 -24 0 -35 5 -35 15 0 10 10 15 30 15 17 0 30 5 30 10 0 6 -13 10 -30 10 -20 0 -30 5 -30 15 0 10 11 15 35 15 24 0 35 5 35 15 0 8 -1 14 -2 13 -2 -1 -22 -3 -45 -5z"/> <path d="M2370 1625 c0 -3 11 -23 25 -45 14 -22 25 -51 25 -65 0 -14 5 -25 10 -25 6 0 10 10 10 22 0 12 12 41 26 65 25 44 27 62 4 48 -6 -4 -15 -18 -20 -31 -12 -30 -27 -31 -36 -1 -7 21 -21 37 -36 37 -5 0 -8 -2 -8 -5z"/> <path d="M1000 1555 c0 -63 1 -65 26 -65 28 0 65 16 76 34 14 20 8 63 -10 79 -10 10 -35 17 -55 17 l-37 0 0 -65z m84 23 c14 -23 -3 -52 -33 -56 -19 -3 -21 1 -21 38 0 37 2 41 21 38 12 -2 27 -11 33 -20z"/> <path d="M1570 1608 c0 -7 -11 -37 -25 -65 -19 -42 -21 -53 -10 -53 8 0 15 7 15 15 0 9 9 15 25 15 14 0 28 -7 31 -15 4 -8 13 -15 21 -15 8 0 13 4 11 8 -1 4 -14 33 -27 65 -23 53 -41 73 -41 45z"/> <path d="M1810 1573 c10 -27 21 -57 25 -68 6 -17 9 -15 22 18 18 45 29 47 38 7 8 -35 25 -50 25 -21 0 10 9 40 20 65 15 36 16 46 5 46 -7 0 -16 -13 -20 -30 -4 -16 -10 -30 -15 -30 -4 0 -13 14 -19 30 -12 37 -28 39 -28 4 0 -44 -20 -50 -33 -10 -6 20 -18 36 -25 36 -11 0 -10 -10 5 -47z"/> <path d="M2141 1568 c-13 -29 -25 -59 -28 -65 -3 -7 2 -13 11 -13 9 0 16 7 16 15 0 9 9 15 24 15 13 0 26 -7 30 -15 3 -8 12 -15 20 -15 12 0 9 13 -14 61 -15 33 -30 63 -33 65 -2 3 -14 -19 -26 -48z"/> <path d="M916 1328 c-15 -38 -13 -46 10 -28 13 12 17 11 24 0 15 -24 21 -5 9 28 -14 41 -25 40 -43 0z"/> <path d="M1010 1350 c0 -5 5 -10 10 -10 6 0 10 -11 10 -25 0 -14 5 -25 10 -25 6 0 10 11 10 25 0 14 5 25 10 25 6 0 10 5 10 10 0 6 -13 10 -30 10 -16 0 -30 -4 -30 -10z"/> <path d="M1179 1344 c-9 -11 -10 -20 -2 -32 11 -19 53 -29 53 -13 0 6 -9 11 -20 11 -11 0 -20 7 -20 15 0 8 6 15 14 15 8 0 18 5 21 10 10 17 -32 11 -46 -6z"/> <path d="M1273 1344 c-8 -22 9 -49 33 -49 30 0 27 59 -4 63 -14 2 -25 -3 -29 -14z"/> <path d="M1384 1346 c-9 -24 0 -51 18 -54 20 -4 40 30 32 52 -8 20 -43 21 -50 2z"/> <path d="M1480 1325 c0 -41 3 -42 30 -15 28 28 26 50 -5 50 -22 0 -25 -4 -25 -35z"/> <path d="M1580 1325 c0 -31 3 -35 25 -35 31 0 33 20 3 21 -22 0 -22 1 -3 9 17 7 17 9 3 9 -10 1 -18 6 -18 12 0 6 7 9 15 6 8 -4 17 -2 20 3 4 6 -5 10 -19 10 -23 0 -26 -4 -26 -35z"/> <path d="M1670 1326 c0 -20 5 -36 10 -36 6 0 10 8 10 17 0 15 2 14 14 -3 13 -18 14 -17 13 16 -2 28 -6 36 -24 38 -20 3 -23 -1 -23 -32z"/> <path d="M1832 1328 c2 -25 8 -34 26 -36 12 -2 22 1 22 7 0 6 -7 11 -15 11 -9 0 -15 9 -15 25 0 14 -5 25 -11 25 -6 0 -9 -14 -7 -32z"/> <path d="M1932 1335 c-17 -36 -15 -50 3 -35 12 10 18 10 30 0 16 -13 20 -3 9 24 -3 9 -10 13 -15 10 -5 -3 -6 2 -3 10 10 27 -12 18 -24 -9z"/> <path d="M2031 1325 c0 -29 2 -35 8 -20 8 19 8 19 20 0 12 -19 12 -18 7 4 -3 14 0 31 6 38 7 9 7 13 0 13 -6 0 -14 -5 -18 -11 -4 -8 -9 -7 -15 2 -6 9 -9 0 -8 -26z"/> <path d="M2122 1328 c2 -25 8 -34 26 -36 12 -2 22 1 22 7 0 6 -8 11 -17 12 -15 0 -15 2 2 9 17 7 17 9 3 9 -10 1 -18 6 -18 12 0 6 7 9 15 5 8 -3 15 -1 15 4 0 6 -12 10 -26 10 -23 0 -25 -3 -22 -32z"/> <path d="M623 1245 c8 -47 76 -190 127 -265 116 -171 316 -310 525 -366 112 -30 419 -25 449 7 8 9 4 10 -14 6 -136 -32 -295 -30 -435 5 -284 69 -534 303 -625 581 -23 73 -36 88 -27 32z"/> <path d="M1212 1217 c-15 -17 1 -42 23 -33 18 6 17 37 -1 43 -6 2 -16 -2 -22 -10z"/> <path d="M1380 1215 c0 -8 6 -15 13 -15 8 0 7 -4 -3 -10 -13 -8 -12 -10 3 -10 9 0 17 7 17 15 0 8 -6 15 -12 15 -9 0 -8 4 2 10 13 8 12 10 -2 10 -10 0 -18 -7 -18 -15z"/> <path d="M1590 1205 c0 -20 4 -26 18 -23 9 2 17 12 17 23 0 11 -8 21 -17 23 -14 3 -18 -3 -18 -23z"/> <path d="M1510 1199 c0 -10 5 -19 10 -19 6 0 10 5 10 11 0 8 5 8 15 -1 12 -10 15 -9 15 6 0 13 -8 19 -25 20 -18 2 -25 -3 -25 -17z"/> <path d="M1701 1201 c-9 -16 -7 -18 14 -18 21 0 23 2 14 18 -5 11 -12 19 -14 19 -2 0 -9 -8 -14 -19z"/> </g> </svg> 